<mxfile host="app.diagrams.net" modified="2023-10-30T06:51:52.492Z" agent="Mozilla/5.0 (Windows NT 10.0; Win64; x64) AppleWebKit/537.36 (KHTML, like Gecko) Chrome/118.0.0.0 Safari/537.36" etag="V4IslnEY61yHqhEzHW6e" version="22.0.8" type="github">
  <diagram id="C5RBs43oDa-KdzZeNtuy" name="Page-1">
    <mxGraphModel dx="840" dy="427" grid="1" gridSize="10" guides="1" tooltips="1" connect="1" arrows="1" fold="1" page="1" pageScale="1" pageWidth="827" pageHeight="1169" math="0" shadow="0">
      <root>
        <mxCell id="WIyWlLk6GJQsqaUBKTNV-0" />
        <mxCell id="WIyWlLk6GJQsqaUBKTNV-1" parent="WIyWlLk6GJQsqaUBKTNV-0" />
        <mxCell id="WIyWlLk6GJQsqaUBKTNV-2" value="" style="rounded=0;html=1;jettySize=auto;orthogonalLoop=1;fontSize=11;endArrow=block;endFill=0;endSize=8;strokeWidth=1;shadow=0;labelBackgroundColor=none;edgeStyle=orthogonalEdgeStyle;" parent="WIyWlLk6GJQsqaUBKTNV-1" source="WIyWlLk6GJQsqaUBKTNV-3" target="WIyWlLk6GJQsqaUBKTNV-6" edge="1">
          <mxGeometry relative="1" as="geometry" />
        </mxCell>
        <mxCell id="OR1sDzfeM6FojQhinFcF-3" value="Start" style="edgeLabel;html=1;align=center;verticalAlign=middle;resizable=0;points=[];" vertex="1" connectable="0" parent="WIyWlLk6GJQsqaUBKTNV-2">
          <mxGeometry x="-0.008" y="2" relative="1" as="geometry">
            <mxPoint as="offset" />
          </mxGeometry>
        </mxCell>
        <mxCell id="WIyWlLk6GJQsqaUBKTNV-3" value="Hunter (User)" style="rounded=1;whiteSpace=wrap;html=1;fontSize=12;glass=0;strokeWidth=1;shadow=0;fillColor=#dae8fc;strokeColor=#6c8ebf;" parent="WIyWlLk6GJQsqaUBKTNV-1" vertex="1">
          <mxGeometry x="30" y="20" width="120" height="40" as="geometry" />
        </mxCell>
        <mxCell id="WIyWlLk6GJQsqaUBKTNV-4" value="Non zero" style="rounded=0;html=1;jettySize=auto;orthogonalLoop=1;fontSize=11;endArrow=block;endFill=0;endSize=8;strokeWidth=1;shadow=0;labelBackgroundColor=none;edgeStyle=orthogonalEdgeStyle;" parent="WIyWlLk6GJQsqaUBKTNV-1" source="WIyWlLk6GJQsqaUBKTNV-6" edge="1">
          <mxGeometry y="20" relative="1" as="geometry">
            <mxPoint as="offset" />
            <mxPoint x="90" y="240" as="targetPoint" />
          </mxGeometry>
        </mxCell>
        <mxCell id="WIyWlLk6GJQsqaUBKTNV-5" value="None" style="edgeStyle=orthogonalEdgeStyle;rounded=0;html=1;jettySize=auto;orthogonalLoop=1;fontSize=11;endArrow=block;endFill=0;endSize=8;strokeWidth=1;shadow=0;labelBackgroundColor=none;" parent="WIyWlLk6GJQsqaUBKTNV-1" source="WIyWlLk6GJQsqaUBKTNV-6" edge="1">
          <mxGeometry y="10" relative="1" as="geometry">
            <mxPoint as="offset" />
            <mxPoint x="190" y="160" as="targetPoint" />
          </mxGeometry>
        </mxCell>
        <mxCell id="WIyWlLk6GJQsqaUBKTNV-6" value="How many quests left?" style="rhombus;whiteSpace=wrap;html=1;shadow=0;fontFamily=Helvetica;fontSize=12;align=center;strokeWidth=1;spacing=6;spacingTop=-4;" parent="WIyWlLk6GJQsqaUBKTNV-1" vertex="1">
          <mxGeometry x="40" y="120" width="100" height="80" as="geometry" />
        </mxCell>
        <mxCell id="OR1sDzfeM6FojQhinFcF-6" value="" style="edgeStyle=orthogonalEdgeStyle;rounded=0;orthogonalLoop=1;jettySize=auto;html=1;" edge="1" parent="WIyWlLk6GJQsqaUBKTNV-1" target="OR1sDzfeM6FojQhinFcF-2">
          <mxGeometry relative="1" as="geometry">
            <mxPoint x="150" y="270" as="sourcePoint" />
          </mxGeometry>
        </mxCell>
        <mxCell id="OR1sDzfeM6FojQhinFcF-148" value="One" style="edgeLabel;html=1;align=center;verticalAlign=middle;resizable=0;points=[];" vertex="1" connectable="0" parent="OR1sDzfeM6FojQhinFcF-6">
          <mxGeometry x="0.1732" relative="1" as="geometry">
            <mxPoint as="offset" />
          </mxGeometry>
        </mxCell>
        <mxCell id="OR1sDzfeM6FojQhinFcF-7" value="" style="edgeStyle=orthogonalEdgeStyle;rounded=0;orthogonalLoop=1;jettySize=auto;html=1;entryX=0;entryY=0.5;entryDx=0;entryDy=0;" edge="1" parent="WIyWlLk6GJQsqaUBKTNV-1" target="OR1sDzfeM6FojQhinFcF-1">
          <mxGeometry relative="1" as="geometry">
            <mxPoint x="150" y="270" as="sourcePoint" />
          </mxGeometry>
        </mxCell>
        <mxCell id="OR1sDzfeM6FojQhinFcF-8" style="edgeStyle=orthogonalEdgeStyle;rounded=0;orthogonalLoop=1;jettySize=auto;html=1;entryX=0;entryY=0.5;entryDx=0;entryDy=0;exitX=1;exitY=0.5;exitDx=0;exitDy=0;" edge="1" parent="WIyWlLk6GJQsqaUBKTNV-1" target="OR1sDzfeM6FojQhinFcF-4">
          <mxGeometry relative="1" as="geometry">
            <mxPoint x="150" y="270" as="sourcePoint" />
          </mxGeometry>
        </mxCell>
        <mxCell id="OR1sDzfeM6FojQhinFcF-149" value="Two" style="edgeLabel;html=1;align=center;verticalAlign=middle;resizable=0;points=[];" vertex="1" connectable="0" parent="OR1sDzfeM6FojQhinFcF-8">
          <mxGeometry x="-0.3058" y="-1" relative="1" as="geometry">
            <mxPoint as="offset" />
          </mxGeometry>
        </mxCell>
        <mxCell id="OR1sDzfeM6FojQhinFcF-150" value="Three" style="edgeLabel;html=1;align=center;verticalAlign=middle;resizable=0;points=[];" vertex="1" connectable="0" parent="OR1sDzfeM6FojQhinFcF-8">
          <mxGeometry x="0.3392" y="-1" relative="1" as="geometry">
            <mxPoint as="offset" />
          </mxGeometry>
        </mxCell>
        <mxCell id="OR1sDzfeM6FojQhinFcF-35" style="edgeStyle=orthogonalEdgeStyle;rounded=0;orthogonalLoop=1;jettySize=auto;html=1;exitX=1;exitY=0.5;exitDx=0;exitDy=0;entryX=0.5;entryY=1;entryDx=0;entryDy=0;" edge="1" parent="WIyWlLk6GJQsqaUBKTNV-1" source="OR1sDzfeM6FojQhinFcF-1" target="OR1sDzfeM6FojQhinFcF-17">
          <mxGeometry relative="1" as="geometry" />
        </mxCell>
        <mxCell id="OR1sDzfeM6FojQhinFcF-1" value="Slay monsters" style="ellipse;whiteSpace=wrap;html=1;" vertex="1" parent="WIyWlLk6GJQsqaUBKTNV-1">
          <mxGeometry x="190" y="300" width="120" height="80" as="geometry" />
        </mxCell>
        <mxCell id="OR1sDzfeM6FojQhinFcF-13" value="" style="edgeStyle=orthogonalEdgeStyle;rounded=0;orthogonalLoop=1;jettySize=auto;html=1;" edge="1" parent="WIyWlLk6GJQsqaUBKTNV-1" source="OR1sDzfeM6FojQhinFcF-2">
          <mxGeometry relative="1" as="geometry">
            <mxPoint x="340" y="240" as="targetPoint" />
          </mxGeometry>
        </mxCell>
        <mxCell id="OR1sDzfeM6FojQhinFcF-2" value="Hunt / Repel &lt;br&gt;a monster" style="ellipse;whiteSpace=wrap;html=1;" vertex="1" parent="WIyWlLk6GJQsqaUBKTNV-1">
          <mxGeometry x="190" y="200" width="120" height="80" as="geometry" />
        </mxCell>
        <mxCell id="OR1sDzfeM6FojQhinFcF-66" value="" style="edgeStyle=orthogonalEdgeStyle;rounded=0;orthogonalLoop=1;jettySize=auto;html=1;" edge="1" parent="WIyWlLk6GJQsqaUBKTNV-1" source="OR1sDzfeM6FojQhinFcF-4" target="OR1sDzfeM6FojQhinFcF-65">
          <mxGeometry relative="1" as="geometry" />
        </mxCell>
        <mxCell id="OR1sDzfeM6FojQhinFcF-4" value="Deliver rare item" style="ellipse;whiteSpace=wrap;html=1;" vertex="1" parent="WIyWlLk6GJQsqaUBKTNV-1">
          <mxGeometry x="190" y="400" width="120" height="80" as="geometry" />
        </mxCell>
        <mxCell id="OR1sDzfeM6FojQhinFcF-10" value="Select a Quest" style="shape=process;whiteSpace=wrap;html=1;backgroundOutline=1;" vertex="1" parent="WIyWlLk6GJQsqaUBKTNV-1">
          <mxGeometry x="30" y="240" width="120" height="60" as="geometry" />
        </mxCell>
        <mxCell id="OR1sDzfeM6FojQhinFcF-141" value="" style="edgeStyle=orthogonalEdgeStyle;rounded=0;orthogonalLoop=1;jettySize=auto;html=1;" edge="1" parent="WIyWlLk6GJQsqaUBKTNV-1" source="OR1sDzfeM6FojQhinFcF-11">
          <mxGeometry relative="1" as="geometry">
            <mxPoint x="250" y="80" as="targetPoint" />
          </mxGeometry>
        </mxCell>
        <mxCell id="OR1sDzfeM6FojQhinFcF-11" value="Plot the result" style="shape=process;whiteSpace=wrap;html=1;backgroundOutline=1;" vertex="1" parent="WIyWlLk6GJQsqaUBKTNV-1">
          <mxGeometry x="190" y="130" width="120" height="60" as="geometry" />
        </mxCell>
        <mxCell id="OR1sDzfeM6FojQhinFcF-15" value="" style="edgeStyle=orthogonalEdgeStyle;rounded=0;orthogonalLoop=1;jettySize=auto;html=1;exitX=0.5;exitY=0;exitDx=0;exitDy=0;" edge="1" parent="WIyWlLk6GJQsqaUBKTNV-1" source="OR1sDzfeM6FojQhinFcF-17" target="OR1sDzfeM6FojQhinFcF-14">
          <mxGeometry relative="1" as="geometry">
            <mxPoint x="380" y="200" as="sourcePoint" />
          </mxGeometry>
        </mxCell>
        <mxCell id="OR1sDzfeM6FojQhinFcF-33" style="edgeStyle=orthogonalEdgeStyle;rounded=0;orthogonalLoop=1;jettySize=auto;html=1;exitX=0.5;exitY=0;exitDx=0;exitDy=0;entryX=0;entryY=0.5;entryDx=0;entryDy=0;" edge="1" parent="WIyWlLk6GJQsqaUBKTNV-1" source="OR1sDzfeM6FojQhinFcF-14" target="OR1sDzfeM6FojQhinFcF-31">
          <mxGeometry relative="1" as="geometry">
            <Array as="points">
              <mxPoint x="380" y="20" />
              <mxPoint x="450" y="20" />
              <mxPoint x="450" y="240" />
            </Array>
          </mxGeometry>
        </mxCell>
        <mxCell id="OR1sDzfeM6FojQhinFcF-60" value="No" style="edgeLabel;html=1;align=center;verticalAlign=middle;resizable=0;points=[];" vertex="1" connectable="0" parent="OR1sDzfeM6FojQhinFcF-33">
          <mxGeometry x="-0.7931" y="-2" relative="1" as="geometry">
            <mxPoint as="offset" />
          </mxGeometry>
        </mxCell>
        <mxCell id="OR1sDzfeM6FojQhinFcF-14" value="Join some colleagues?" style="rhombus;whiteSpace=wrap;html=1;" vertex="1" parent="WIyWlLk6GJQsqaUBKTNV-1">
          <mxGeometry x="340" y="40" width="80" height="80" as="geometry" />
        </mxCell>
        <mxCell id="OR1sDzfeM6FojQhinFcF-17" value="Select Weapon" style="ellipse;whiteSpace=wrap;html=1;" vertex="1" parent="WIyWlLk6GJQsqaUBKTNV-1">
          <mxGeometry x="340" y="205" width="80" height="70" as="geometry" />
        </mxCell>
        <mxCell id="OR1sDzfeM6FojQhinFcF-21" value="" style="edgeStyle=orthogonalEdgeStyle;rounded=0;orthogonalLoop=1;jettySize=auto;html=1;exitX=1;exitY=0.5;exitDx=0;exitDy=0;" edge="1" parent="WIyWlLk6GJQsqaUBKTNV-1" source="OR1sDzfeM6FojQhinFcF-14">
          <mxGeometry relative="1" as="geometry">
            <mxPoint x="560" y="80" as="sourcePoint" />
            <mxPoint x="510" y="80" as="targetPoint" />
          </mxGeometry>
        </mxCell>
        <mxCell id="OR1sDzfeM6FojQhinFcF-61" value="Yes" style="edgeLabel;html=1;align=center;verticalAlign=middle;resizable=0;points=[];" vertex="1" connectable="0" parent="OR1sDzfeM6FojQhinFcF-21">
          <mxGeometry x="0.1649" y="4" relative="1" as="geometry">
            <mxPoint as="offset" />
          </mxGeometry>
        </mxCell>
        <mxCell id="OR1sDzfeM6FojQhinFcF-37" value="" style="edgeStyle=orthogonalEdgeStyle;rounded=0;orthogonalLoop=1;jettySize=auto;html=1;" edge="1" parent="WIyWlLk6GJQsqaUBKTNV-1" source="OR1sDzfeM6FojQhinFcF-31" target="OR1sDzfeM6FojQhinFcF-36">
          <mxGeometry relative="1" as="geometry" />
        </mxCell>
        <mxCell id="OR1sDzfeM6FojQhinFcF-31" value="Assign Quest and Hunt" style="shape=process;whiteSpace=wrap;html=1;backgroundOutline=1;" vertex="1" parent="WIyWlLk6GJQsqaUBKTNV-1">
          <mxGeometry x="620" y="210" width="120" height="60" as="geometry" />
        </mxCell>
        <mxCell id="OR1sDzfeM6FojQhinFcF-39" value="" style="edgeStyle=orthogonalEdgeStyle;rounded=0;orthogonalLoop=1;jettySize=auto;html=1;" edge="1" parent="WIyWlLk6GJQsqaUBKTNV-1" source="OR1sDzfeM6FojQhinFcF-36" target="OR1sDzfeM6FojQhinFcF-38">
          <mxGeometry relative="1" as="geometry" />
        </mxCell>
        <mxCell id="OR1sDzfeM6FojQhinFcF-40" value="One" style="edgeLabel;html=1;align=center;verticalAlign=middle;resizable=0;points=[];" vertex="1" connectable="0" parent="OR1sDzfeM6FojQhinFcF-39">
          <mxGeometry x="-0.4121" y="-1" relative="1" as="geometry">
            <mxPoint as="offset" />
          </mxGeometry>
        </mxCell>
        <mxCell id="OR1sDzfeM6FojQhinFcF-42" value="" style="edgeStyle=orthogonalEdgeStyle;rounded=0;orthogonalLoop=1;jettySize=auto;html=1;" edge="1" parent="WIyWlLk6GJQsqaUBKTNV-1" source="OR1sDzfeM6FojQhinFcF-36" target="OR1sDzfeM6FojQhinFcF-41">
          <mxGeometry relative="1" as="geometry" />
        </mxCell>
        <mxCell id="OR1sDzfeM6FojQhinFcF-43" value="Two" style="edgeLabel;html=1;align=center;verticalAlign=middle;resizable=0;points=[];" vertex="1" connectable="0" parent="OR1sDzfeM6FojQhinFcF-42">
          <mxGeometry x="-0.3917" y="1" relative="1" as="geometry">
            <mxPoint as="offset" />
          </mxGeometry>
        </mxCell>
        <mxCell id="OR1sDzfeM6FojQhinFcF-36" value="What type the quest is?" style="rhombus;whiteSpace=wrap;html=1;" vertex="1" parent="WIyWlLk6GJQsqaUBKTNV-1">
          <mxGeometry x="605" y="310" width="150" height="80" as="geometry" />
        </mxCell>
        <mxCell id="OR1sDzfeM6FojQhinFcF-63" value="" style="edgeStyle=orthogonalEdgeStyle;rounded=0;orthogonalLoop=1;jettySize=auto;html=1;" edge="1" parent="WIyWlLk6GJQsqaUBKTNV-1" source="OR1sDzfeM6FojQhinFcF-38" target="OR1sDzfeM6FojQhinFcF-62">
          <mxGeometry relative="1" as="geometry" />
        </mxCell>
        <mxCell id="OR1sDzfeM6FojQhinFcF-38" value="Compute Success&lt;br&gt;propability" style="shape=process;whiteSpace=wrap;html=1;backgroundOutline=1;" vertex="1" parent="WIyWlLk6GJQsqaUBKTNV-1">
          <mxGeometry x="430" y="320" width="120" height="60" as="geometry" />
        </mxCell>
        <mxCell id="OR1sDzfeM6FojQhinFcF-64" value="" style="edgeStyle=orthogonalEdgeStyle;rounded=0;orthogonalLoop=1;jettySize=auto;html=1;" edge="1" parent="WIyWlLk6GJQsqaUBKTNV-1" source="OR1sDzfeM6FojQhinFcF-41" target="OR1sDzfeM6FojQhinFcF-62">
          <mxGeometry relative="1" as="geometry" />
        </mxCell>
        <mxCell id="OR1sDzfeM6FojQhinFcF-41" value="Compute Success&lt;br style=&quot;border-color: var(--border-color);&quot;&gt;propability" style="shape=process;whiteSpace=wrap;html=1;backgroundOutline=1;" vertex="1" parent="WIyWlLk6GJQsqaUBKTNV-1">
          <mxGeometry x="620" y="430" width="120" height="60" as="geometry" />
        </mxCell>
        <mxCell id="OR1sDzfeM6FojQhinFcF-53" style="edgeStyle=orthogonalEdgeStyle;rounded=0;orthogonalLoop=1;jettySize=auto;html=1;exitX=1;exitY=0.5;exitDx=0;exitDy=0;entryX=0;entryY=0.5;entryDx=0;entryDy=0;" edge="1" parent="WIyWlLk6GJQsqaUBKTNV-1" source="OR1sDzfeM6FojQhinFcF-45" target="OR1sDzfeM6FojQhinFcF-52">
          <mxGeometry relative="1" as="geometry" />
        </mxCell>
        <mxCell id="OR1sDzfeM6FojQhinFcF-54" value="Yes" style="edgeLabel;html=1;align=center;verticalAlign=middle;resizable=0;points=[];" vertex="1" connectable="0" parent="OR1sDzfeM6FojQhinFcF-53">
          <mxGeometry x="-0.4467" y="2" relative="1" as="geometry">
            <mxPoint as="offset" />
          </mxGeometry>
        </mxCell>
        <mxCell id="OR1sDzfeM6FojQhinFcF-56" style="edgeStyle=orthogonalEdgeStyle;rounded=0;orthogonalLoop=1;jettySize=auto;html=1;exitX=0.5;exitY=1;exitDx=0;exitDy=0;entryX=0.5;entryY=0;entryDx=0;entryDy=0;" edge="1" parent="WIyWlLk6GJQsqaUBKTNV-1" source="OR1sDzfeM6FojQhinFcF-45" target="OR1sDzfeM6FojQhinFcF-31">
          <mxGeometry relative="1" as="geometry" />
        </mxCell>
        <mxCell id="OR1sDzfeM6FojQhinFcF-59" value="No" style="edgeLabel;html=1;align=center;verticalAlign=middle;resizable=0;points=[];" vertex="1" connectable="0" parent="OR1sDzfeM6FojQhinFcF-56">
          <mxGeometry x="-0.8212" y="-4" relative="1" as="geometry">
            <mxPoint as="offset" />
          </mxGeometry>
        </mxCell>
        <mxCell id="OR1sDzfeM6FojQhinFcF-45" value="Select?" style="rhombus;whiteSpace=wrap;html=1;" vertex="1" parent="WIyWlLk6GJQsqaUBKTNV-1">
          <mxGeometry x="510" y="40" width="80" height="80" as="geometry" />
        </mxCell>
        <mxCell id="OR1sDzfeM6FojQhinFcF-55" style="edgeStyle=orthogonalEdgeStyle;rounded=0;orthogonalLoop=1;jettySize=auto;html=1;exitX=0.5;exitY=0;exitDx=0;exitDy=0;entryX=0.5;entryY=0;entryDx=0;entryDy=0;" edge="1" parent="WIyWlLk6GJQsqaUBKTNV-1" source="OR1sDzfeM6FojQhinFcF-52" target="OR1sDzfeM6FojQhinFcF-45">
          <mxGeometry relative="1" as="geometry" />
        </mxCell>
        <mxCell id="OR1sDzfeM6FojQhinFcF-57" style="edgeStyle=orthogonalEdgeStyle;rounded=0;orthogonalLoop=1;jettySize=auto;html=1;" edge="1" parent="WIyWlLk6GJQsqaUBKTNV-1" source="OR1sDzfeM6FojQhinFcF-52">
          <mxGeometry relative="1" as="geometry">
            <mxPoint x="680" y="170" as="targetPoint" />
          </mxGeometry>
        </mxCell>
        <mxCell id="OR1sDzfeM6FojQhinFcF-58" value="Select all 3 colleagues" style="edgeLabel;html=1;align=center;verticalAlign=middle;resizable=0;points=[];" vertex="1" connectable="0" parent="OR1sDzfeM6FojQhinFcF-57">
          <mxGeometry x="-0.2542" relative="1" as="geometry">
            <mxPoint as="offset" />
          </mxGeometry>
        </mxCell>
        <mxCell id="OR1sDzfeM6FojQhinFcF-52" value="Select colleagues" style="ellipse;whiteSpace=wrap;html=1;" vertex="1" parent="WIyWlLk6GJQsqaUBKTNV-1">
          <mxGeometry x="640" y="40" width="80" height="80" as="geometry" />
        </mxCell>
        <mxCell id="OR1sDzfeM6FojQhinFcF-68" value="" style="edgeStyle=orthogonalEdgeStyle;rounded=0;orthogonalLoop=1;jettySize=auto;html=1;" edge="1" parent="WIyWlLk6GJQsqaUBKTNV-1" source="OR1sDzfeM6FojQhinFcF-62" target="OR1sDzfeM6FojQhinFcF-67">
          <mxGeometry relative="1" as="geometry" />
        </mxCell>
        <mxCell id="OR1sDzfeM6FojQhinFcF-69" value="Yes" style="edgeLabel;html=1;align=center;verticalAlign=middle;resizable=0;points=[];" vertex="1" connectable="0" parent="OR1sDzfeM6FojQhinFcF-68">
          <mxGeometry x="-0.1926" relative="1" as="geometry">
            <mxPoint as="offset" />
          </mxGeometry>
        </mxCell>
        <mxCell id="OR1sDzfeM6FojQhinFcF-70" value="" style="edgeStyle=orthogonalEdgeStyle;rounded=0;orthogonalLoop=1;jettySize=auto;html=1;" edge="1" parent="WIyWlLk6GJQsqaUBKTNV-1" source="OR1sDzfeM6FojQhinFcF-62" target="OR1sDzfeM6FojQhinFcF-67">
          <mxGeometry relative="1" as="geometry" />
        </mxCell>
        <mxCell id="OR1sDzfeM6FojQhinFcF-62" value="Succeed?" style="rhombus;whiteSpace=wrap;html=1;" vertex="1" parent="WIyWlLk6GJQsqaUBKTNV-1">
          <mxGeometry x="450" y="420" width="80" height="80" as="geometry" />
        </mxCell>
        <mxCell id="OR1sDzfeM6FojQhinFcF-74" style="edgeStyle=orthogonalEdgeStyle;rounded=0;orthogonalLoop=1;jettySize=auto;html=1;exitX=0.5;exitY=0;exitDx=0;exitDy=0;entryX=0;entryY=0.5;entryDx=0;entryDy=0;" edge="1" parent="WIyWlLk6GJQsqaUBKTNV-1" source="OR1sDzfeM6FojQhinFcF-65" target="OR1sDzfeM6FojQhinFcF-38">
          <mxGeometry relative="1" as="geometry" />
        </mxCell>
        <mxCell id="OR1sDzfeM6FojQhinFcF-65" value="Select map &lt;br&gt;and day or night" style="rhombus;whiteSpace=wrap;html=1;" vertex="1" parent="WIyWlLk6GJQsqaUBKTNV-1">
          <mxGeometry x="325" y="410" width="110" height="60" as="geometry" />
        </mxCell>
        <mxCell id="OR1sDzfeM6FojQhinFcF-76" value="" style="edgeStyle=orthogonalEdgeStyle;rounded=0;orthogonalLoop=1;jettySize=auto;html=1;" edge="1" parent="WIyWlLk6GJQsqaUBKTNV-1" source="OR1sDzfeM6FojQhinFcF-67" target="OR1sDzfeM6FojQhinFcF-75">
          <mxGeometry relative="1" as="geometry" />
        </mxCell>
        <mxCell id="OR1sDzfeM6FojQhinFcF-67" value="Compute payment for reward" style="shape=process;whiteSpace=wrap;html=1;backgroundOutline=1;" vertex="1" parent="WIyWlLk6GJQsqaUBKTNV-1">
          <mxGeometry x="360" y="560" width="120" height="60" as="geometry" />
        </mxCell>
        <mxCell id="OR1sDzfeM6FojQhinFcF-71" value="" style="endArrow=classic;html=1;rounded=0;" edge="1" parent="WIyWlLk6GJQsqaUBKTNV-1">
          <mxGeometry width="50" height="50" relative="1" as="geometry">
            <mxPoint x="490" y="530" as="sourcePoint" />
            <mxPoint x="560" y="560" as="targetPoint" />
            <Array as="points">
              <mxPoint x="560" y="530" />
            </Array>
          </mxGeometry>
        </mxCell>
        <mxCell id="OR1sDzfeM6FojQhinFcF-72" value="No" style="edgeLabel;html=1;align=center;verticalAlign=middle;resizable=0;points=[];" vertex="1" connectable="0" parent="OR1sDzfeM6FojQhinFcF-71">
          <mxGeometry x="-0.1733" relative="1" as="geometry">
            <mxPoint as="offset" />
          </mxGeometry>
        </mxCell>
        <mxCell id="OR1sDzfeM6FojQhinFcF-73" value="Return 0(Zero)" style="shape=process;whiteSpace=wrap;html=1;backgroundOutline=1;" vertex="1" parent="WIyWlLk6GJQsqaUBKTNV-1">
          <mxGeometry x="500" y="560" width="120" height="60" as="geometry" />
        </mxCell>
        <mxCell id="OR1sDzfeM6FojQhinFcF-77" style="edgeStyle=orthogonalEdgeStyle;rounded=0;orthogonalLoop=1;jettySize=auto;html=1;exitX=0.5;exitY=0;exitDx=0;exitDy=0;entryX=0.5;entryY=1;entryDx=0;entryDy=0;" edge="1" parent="WIyWlLk6GJQsqaUBKTNV-1" source="OR1sDzfeM6FojQhinFcF-75" target="OR1sDzfeM6FojQhinFcF-10">
          <mxGeometry relative="1" as="geometry" />
        </mxCell>
        <mxCell id="OR1sDzfeM6FojQhinFcF-75" value="Add the paid" style="shape=process;whiteSpace=wrap;html=1;backgroundOutline=1;" vertex="1" parent="WIyWlLk6GJQsqaUBKTNV-1">
          <mxGeometry x="30" y="560" width="120" height="60" as="geometry" />
        </mxCell>
        <mxCell id="OR1sDzfeM6FojQhinFcF-80" value="" style="edgeStyle=orthogonalEdgeStyle;rounded=0;orthogonalLoop=1;jettySize=auto;html=1;" edge="1" parent="WIyWlLk6GJQsqaUBKTNV-1" source="OR1sDzfeM6FojQhinFcF-78" target="OR1sDzfeM6FojQhinFcF-79">
          <mxGeometry relative="1" as="geometry" />
        </mxCell>
        <mxCell id="OR1sDzfeM6FojQhinFcF-92" value="Log In" style="edgeLabel;html=1;align=center;verticalAlign=middle;resizable=0;points=[];" vertex="1" connectable="0" parent="OR1sDzfeM6FojQhinFcF-80">
          <mxGeometry x="-0.09" y="3" relative="1" as="geometry">
            <mxPoint as="offset" />
          </mxGeometry>
        </mxCell>
        <mxCell id="OR1sDzfeM6FojQhinFcF-78" value="Receptionist" style="rounded=1;whiteSpace=wrap;html=1;fillColor=#d5e8d4;strokeColor=#82b366;" vertex="1" parent="WIyWlLk6GJQsqaUBKTNV-1">
          <mxGeometry x="30" y="650" width="120" height="60" as="geometry" />
        </mxCell>
        <mxCell id="OR1sDzfeM6FojQhinFcF-82" value="" style="edgeStyle=orthogonalEdgeStyle;rounded=0;orthogonalLoop=1;jettySize=auto;html=1;" edge="1" parent="WIyWlLk6GJQsqaUBKTNV-1" source="OR1sDzfeM6FojQhinFcF-79" target="OR1sDzfeM6FojQhinFcF-81">
          <mxGeometry relative="1" as="geometry" />
        </mxCell>
        <mxCell id="OR1sDzfeM6FojQhinFcF-93" value="Yes" style="edgeLabel;html=1;align=center;verticalAlign=middle;resizable=0;points=[];" vertex="1" connectable="0" parent="OR1sDzfeM6FojQhinFcF-82">
          <mxGeometry x="-0.175" relative="1" as="geometry">
            <mxPoint as="offset" />
          </mxGeometry>
        </mxCell>
        <mxCell id="OR1sDzfeM6FojQhinFcF-102" value="" style="edgeStyle=orthogonalEdgeStyle;rounded=0;orthogonalLoop=1;jettySize=auto;html=1;entryX=1.033;entryY=0.321;entryDx=0;entryDy=0;entryPerimeter=0;" edge="1" parent="WIyWlLk6GJQsqaUBKTNV-1" source="OR1sDzfeM6FojQhinFcF-79" target="OR1sDzfeM6FojQhinFcF-101">
          <mxGeometry relative="1" as="geometry" />
        </mxCell>
        <mxCell id="OR1sDzfeM6FojQhinFcF-103" value="No" style="edgeLabel;html=1;align=center;verticalAlign=middle;resizable=0;points=[];" vertex="1" connectable="0" parent="OR1sDzfeM6FojQhinFcF-102">
          <mxGeometry x="-0.5216" y="-2" relative="1" as="geometry">
            <mxPoint as="offset" />
          </mxGeometry>
        </mxCell>
        <mxCell id="OR1sDzfeM6FojQhinFcF-79" value="Add a colleagues info?" style="rhombus;whiteSpace=wrap;html=1;rounded=1;" vertex="1" parent="WIyWlLk6GJQsqaUBKTNV-1">
          <mxGeometry x="250" y="640" width="80" height="80" as="geometry" />
        </mxCell>
        <mxCell id="OR1sDzfeM6FojQhinFcF-84" value="" style="edgeStyle=orthogonalEdgeStyle;rounded=0;orthogonalLoop=1;jettySize=auto;html=1;" edge="1" parent="WIyWlLk6GJQsqaUBKTNV-1" source="OR1sDzfeM6FojQhinFcF-81" target="OR1sDzfeM6FojQhinFcF-83">
          <mxGeometry relative="1" as="geometry" />
        </mxCell>
        <mxCell id="OR1sDzfeM6FojQhinFcF-85" value="No" style="edgeLabel;html=1;align=center;verticalAlign=middle;resizable=0;points=[];" vertex="1" connectable="0" parent="OR1sDzfeM6FojQhinFcF-84">
          <mxGeometry x="-0.4833" relative="1" as="geometry">
            <mxPoint as="offset" />
          </mxGeometry>
        </mxCell>
        <mxCell id="OR1sDzfeM6FojQhinFcF-87" value="" style="edgeStyle=orthogonalEdgeStyle;rounded=0;orthogonalLoop=1;jettySize=auto;html=1;" edge="1" parent="WIyWlLk6GJQsqaUBKTNV-1" source="OR1sDzfeM6FojQhinFcF-81" target="OR1sDzfeM6FojQhinFcF-86">
          <mxGeometry relative="1" as="geometry" />
        </mxCell>
        <mxCell id="OR1sDzfeM6FojQhinFcF-88" value="Yes" style="edgeLabel;html=1;align=center;verticalAlign=middle;resizable=0;points=[];" vertex="1" connectable="0" parent="OR1sDzfeM6FojQhinFcF-87">
          <mxGeometry x="-0.6083" relative="1" as="geometry">
            <mxPoint as="offset" />
          </mxGeometry>
        </mxCell>
        <mxCell id="OR1sDzfeM6FojQhinFcF-81" value="Hunter of guild?" style="rhombus;whiteSpace=wrap;html=1;rounded=1;" vertex="1" parent="WIyWlLk6GJQsqaUBKTNV-1">
          <mxGeometry x="410" y="640" width="80" height="80" as="geometry" />
        </mxCell>
        <mxCell id="OR1sDzfeM6FojQhinFcF-91" style="edgeStyle=orthogonalEdgeStyle;rounded=0;orthogonalLoop=1;jettySize=auto;html=1;exitX=0.5;exitY=1;exitDx=0;exitDy=0;entryX=0.5;entryY=0;entryDx=0;entryDy=0;" edge="1" parent="WIyWlLk6GJQsqaUBKTNV-1" source="OR1sDzfeM6FojQhinFcF-83" target="OR1sDzfeM6FojQhinFcF-89">
          <mxGeometry relative="1" as="geometry" />
        </mxCell>
        <mxCell id="OR1sDzfeM6FojQhinFcF-83" value="Mercenary :&lt;br&gt;high risk &lt;br&gt;high paid&amp;nbsp;" style="shape=process;whiteSpace=wrap;html=1;backgroundOutline=1;rounded=1;" vertex="1" parent="WIyWlLk6GJQsqaUBKTNV-1">
          <mxGeometry x="550" y="650" width="120" height="60" as="geometry" />
        </mxCell>
        <mxCell id="OR1sDzfeM6FojQhinFcF-90" value="" style="edgeStyle=orthogonalEdgeStyle;rounded=0;orthogonalLoop=1;jettySize=auto;html=1;" edge="1" parent="WIyWlLk6GJQsqaUBKTNV-1" source="OR1sDzfeM6FojQhinFcF-86" target="OR1sDzfeM6FojQhinFcF-89">
          <mxGeometry relative="1" as="geometry" />
        </mxCell>
        <mxCell id="OR1sDzfeM6FojQhinFcF-86" value="Guild Hunter :&lt;br&gt;low risk&lt;br&gt;low paid" style="shape=process;whiteSpace=wrap;html=1;backgroundOutline=1;rounded=1;" vertex="1" parent="WIyWlLk6GJQsqaUBKTNV-1">
          <mxGeometry x="390" y="760" width="120" height="60" as="geometry" />
        </mxCell>
        <mxCell id="OR1sDzfeM6FojQhinFcF-99" value="" style="edgeStyle=orthogonalEdgeStyle;rounded=0;orthogonalLoop=1;jettySize=auto;html=1;" edge="1" parent="WIyWlLk6GJQsqaUBKTNV-1" source="OR1sDzfeM6FojQhinFcF-89" target="OR1sDzfeM6FojQhinFcF-98">
          <mxGeometry relative="1" as="geometry" />
        </mxCell>
        <mxCell id="OR1sDzfeM6FojQhinFcF-89" value="Select Weapon" style="rhombus;whiteSpace=wrap;html=1;rounded=1;" vertex="1" parent="WIyWlLk6GJQsqaUBKTNV-1">
          <mxGeometry x="570" y="750" width="80" height="80" as="geometry" />
        </mxCell>
        <mxCell id="OR1sDzfeM6FojQhinFcF-100" style="edgeStyle=orthogonalEdgeStyle;rounded=0;orthogonalLoop=1;jettySize=auto;html=1;exitX=0;exitY=0.5;exitDx=0;exitDy=0;entryX=0.5;entryY=1;entryDx=0;entryDy=0;" edge="1" parent="WIyWlLk6GJQsqaUBKTNV-1" source="OR1sDzfeM6FojQhinFcF-98" target="OR1sDzfeM6FojQhinFcF-79">
          <mxGeometry relative="1" as="geometry">
            <mxPoint x="220" y="740" as="targetPoint" />
            <Array as="points">
              <mxPoint x="320" y="880" />
              <mxPoint x="320" y="720" />
            </Array>
          </mxGeometry>
        </mxCell>
        <mxCell id="OR1sDzfeM6FojQhinFcF-98" value="Add the hunter &lt;br&gt;to the Table" style="shape=process;whiteSpace=wrap;html=1;backgroundOutline=1;rounded=1;" vertex="1" parent="WIyWlLk6GJQsqaUBKTNV-1">
          <mxGeometry x="550" y="850" width="120" height="60" as="geometry" />
        </mxCell>
        <mxCell id="OR1sDzfeM6FojQhinFcF-101" value="Log Out" style="whiteSpace=wrap;html=1;rounded=1;" vertex="1" parent="WIyWlLk6GJQsqaUBKTNV-1">
          <mxGeometry x="210" y="610" width="50" height="30" as="geometry" />
        </mxCell>
        <mxCell id="OR1sDzfeM6FojQhinFcF-106" value="" style="edgeStyle=orthogonalEdgeStyle;rounded=0;orthogonalLoop=1;jettySize=auto;html=1;" edge="1" parent="WIyWlLk6GJQsqaUBKTNV-1" source="OR1sDzfeM6FojQhinFcF-104" target="OR1sDzfeM6FojQhinFcF-105">
          <mxGeometry relative="1" as="geometry" />
        </mxCell>
        <mxCell id="OR1sDzfeM6FojQhinFcF-107" value="Log In" style="edgeLabel;html=1;align=center;verticalAlign=middle;resizable=0;points=[];" vertex="1" connectable="0" parent="OR1sDzfeM6FojQhinFcF-106">
          <mxGeometry x="-0.0733" relative="1" as="geometry">
            <mxPoint as="offset" />
          </mxGeometry>
        </mxCell>
        <mxCell id="OR1sDzfeM6FojQhinFcF-104" value="Guild&lt;br&gt;(Administrator)" style="rounded=1;whiteSpace=wrap;html=1;fillColor=#fff2cc;strokeColor=#d6b656;" vertex="1" parent="WIyWlLk6GJQsqaUBKTNV-1">
          <mxGeometry x="30" y="920" width="120" height="60" as="geometry" />
        </mxCell>
        <mxCell id="OR1sDzfeM6FojQhinFcF-110" value="" style="edgeStyle=orthogonalEdgeStyle;rounded=0;orthogonalLoop=1;jettySize=auto;html=1;" edge="1" parent="WIyWlLk6GJQsqaUBKTNV-1" source="OR1sDzfeM6FojQhinFcF-105" target="OR1sDzfeM6FojQhinFcF-109">
          <mxGeometry relative="1" as="geometry" />
        </mxCell>
        <mxCell id="OR1sDzfeM6FojQhinFcF-111" value="Yes" style="edgeLabel;html=1;align=center;verticalAlign=middle;resizable=0;points=[];" vertex="1" connectable="0" parent="OR1sDzfeM6FojQhinFcF-110">
          <mxGeometry x="-0.3214" y="-1" relative="1" as="geometry">
            <mxPoint as="offset" />
          </mxGeometry>
        </mxCell>
        <mxCell id="OR1sDzfeM6FojQhinFcF-113" value="" style="edgeStyle=orthogonalEdgeStyle;rounded=0;orthogonalLoop=1;jettySize=auto;html=1;entryX=1;entryY=0.5;entryDx=0;entryDy=0;" edge="1" parent="WIyWlLk6GJQsqaUBKTNV-1" source="OR1sDzfeM6FojQhinFcF-105" target="OR1sDzfeM6FojQhinFcF-112">
          <mxGeometry relative="1" as="geometry" />
        </mxCell>
        <mxCell id="OR1sDzfeM6FojQhinFcF-114" value="No" style="edgeLabel;html=1;align=center;verticalAlign=middle;resizable=0;points=[];" vertex="1" connectable="0" parent="OR1sDzfeM6FojQhinFcF-113">
          <mxGeometry x="-0.2371" y="2" relative="1" as="geometry">
            <mxPoint as="offset" />
          </mxGeometry>
        </mxCell>
        <mxCell id="OR1sDzfeM6FojQhinFcF-105" value="Add a quest?" style="rhombus;whiteSpace=wrap;html=1;rounded=1;" vertex="1" parent="WIyWlLk6GJQsqaUBKTNV-1">
          <mxGeometry x="250" y="910" width="80" height="80" as="geometry" />
        </mxCell>
        <mxCell id="OR1sDzfeM6FojQhinFcF-121" style="edgeStyle=orthogonalEdgeStyle;rounded=0;orthogonalLoop=1;jettySize=auto;html=1;exitX=0.5;exitY=1;exitDx=0;exitDy=0;entryX=0.5;entryY=0;entryDx=0;entryDy=0;" edge="1" parent="WIyWlLk6GJQsqaUBKTNV-1" source="OR1sDzfeM6FojQhinFcF-109" target="OR1sDzfeM6FojQhinFcF-119">
          <mxGeometry relative="1" as="geometry" />
        </mxCell>
        <mxCell id="OR1sDzfeM6FojQhinFcF-122" style="edgeStyle=orthogonalEdgeStyle;rounded=0;orthogonalLoop=1;jettySize=auto;html=1;exitX=0.5;exitY=1;exitDx=0;exitDy=0;" edge="1" parent="WIyWlLk6GJQsqaUBKTNV-1" source="OR1sDzfeM6FojQhinFcF-109">
          <mxGeometry relative="1" as="geometry">
            <mxPoint x="464.9655172413793" y="1000.2758620689656" as="targetPoint" />
          </mxGeometry>
        </mxCell>
        <mxCell id="OR1sDzfeM6FojQhinFcF-123" value="" style="edgeStyle=orthogonalEdgeStyle;rounded=0;orthogonalLoop=1;jettySize=auto;html=1;" edge="1" parent="WIyWlLk6GJQsqaUBKTNV-1" source="OR1sDzfeM6FojQhinFcF-109" target="OR1sDzfeM6FojQhinFcF-119">
          <mxGeometry relative="1" as="geometry" />
        </mxCell>
        <mxCell id="OR1sDzfeM6FojQhinFcF-127" value="Two" style="edgeLabel;html=1;align=center;verticalAlign=middle;resizable=0;points=[];" vertex="1" connectable="0" parent="OR1sDzfeM6FojQhinFcF-123">
          <mxGeometry x="0.6086" y="-1" relative="1" as="geometry">
            <mxPoint as="offset" />
          </mxGeometry>
        </mxCell>
        <mxCell id="OR1sDzfeM6FojQhinFcF-109" value="What type of the quest?" style="rhombus;whiteSpace=wrap;html=1;rounded=1;" vertex="1" parent="WIyWlLk6GJQsqaUBKTNV-1">
          <mxGeometry x="410" y="905" width="110" height="90" as="geometry" />
        </mxCell>
        <mxCell id="OR1sDzfeM6FojQhinFcF-112" value="Log Out" style="whiteSpace=wrap;html=1;rounded=1;" vertex="1" parent="WIyWlLk6GJQsqaUBKTNV-1">
          <mxGeometry x="170" y="850" width="80" height="30" as="geometry" />
        </mxCell>
        <mxCell id="OR1sDzfeM6FojQhinFcF-130" value="" style="edgeStyle=orthogonalEdgeStyle;rounded=0;orthogonalLoop=1;jettySize=auto;html=1;" edge="1" parent="WIyWlLk6GJQsqaUBKTNV-1" source="OR1sDzfeM6FojQhinFcF-118" target="OR1sDzfeM6FojQhinFcF-129">
          <mxGeometry relative="1" as="geometry" />
        </mxCell>
        <mxCell id="OR1sDzfeM6FojQhinFcF-118" value="Hunt a Monster" style="ellipse;whiteSpace=wrap;html=1;" vertex="1" parent="WIyWlLk6GJQsqaUBKTNV-1">
          <mxGeometry x="330" y="1020" width="80" height="50" as="geometry" />
        </mxCell>
        <mxCell id="OR1sDzfeM6FojQhinFcF-132" value="" style="edgeStyle=orthogonalEdgeStyle;rounded=0;orthogonalLoop=1;jettySize=auto;html=1;" edge="1" parent="WIyWlLk6GJQsqaUBKTNV-1" source="OR1sDzfeM6FojQhinFcF-119" target="OR1sDzfeM6FojQhinFcF-131">
          <mxGeometry relative="1" as="geometry" />
        </mxCell>
        <mxCell id="OR1sDzfeM6FojQhinFcF-119" value="Slay monsters" style="ellipse;whiteSpace=wrap;html=1;" vertex="1" parent="WIyWlLk6GJQsqaUBKTNV-1">
          <mxGeometry x="427.5" y="1020" width="75" height="50" as="geometry" />
        </mxCell>
        <mxCell id="OR1sDzfeM6FojQhinFcF-134" value="" style="edgeStyle=orthogonalEdgeStyle;rounded=0;orthogonalLoop=1;jettySize=auto;html=1;" edge="1" parent="WIyWlLk6GJQsqaUBKTNV-1" source="OR1sDzfeM6FojQhinFcF-120" target="OR1sDzfeM6FojQhinFcF-133">
          <mxGeometry relative="1" as="geometry" />
        </mxCell>
        <mxCell id="OR1sDzfeM6FojQhinFcF-120" value="Deliver rare items" style="ellipse;whiteSpace=wrap;html=1;" vertex="1" parent="WIyWlLk6GJQsqaUBKTNV-1">
          <mxGeometry x="520" y="1020" width="80" height="50" as="geometry" />
        </mxCell>
        <mxCell id="OR1sDzfeM6FojQhinFcF-124" value="" style="endArrow=classic;html=1;rounded=0;entryX=0.5;entryY=0;entryDx=0;entryDy=0;" edge="1" parent="WIyWlLk6GJQsqaUBKTNV-1" target="OR1sDzfeM6FojQhinFcF-118">
          <mxGeometry width="50" height="50" relative="1" as="geometry">
            <mxPoint x="530" y="1000" as="sourcePoint" />
            <mxPoint x="360" y="1010" as="targetPoint" />
            <Array as="points">
              <mxPoint x="370" y="1000" />
            </Array>
          </mxGeometry>
        </mxCell>
        <mxCell id="OR1sDzfeM6FojQhinFcF-126" value="One" style="edgeLabel;html=1;align=center;verticalAlign=middle;resizable=0;points=[];" vertex="1" connectable="0" parent="OR1sDzfeM6FojQhinFcF-124">
          <mxGeometry x="0.3547" y="-2" relative="1" as="geometry">
            <mxPoint as="offset" />
          </mxGeometry>
        </mxCell>
        <mxCell id="OR1sDzfeM6FojQhinFcF-125" value="" style="endArrow=classic;html=1;rounded=0;entryX=0.5;entryY=0;entryDx=0;entryDy=0;" edge="1" parent="WIyWlLk6GJQsqaUBKTNV-1" target="OR1sDzfeM6FojQhinFcF-120">
          <mxGeometry width="50" height="50" relative="1" as="geometry">
            <mxPoint x="530" y="1000" as="sourcePoint" />
            <mxPoint x="480" y="1010" as="targetPoint" />
            <Array as="points">
              <mxPoint x="560" y="1000" />
            </Array>
          </mxGeometry>
        </mxCell>
        <mxCell id="OR1sDzfeM6FojQhinFcF-128" value="Three" style="edgeLabel;html=1;align=center;verticalAlign=middle;resizable=0;points=[];" vertex="1" connectable="0" parent="OR1sDzfeM6FojQhinFcF-125">
          <mxGeometry x="-0.5592" y="1" relative="1" as="geometry">
            <mxPoint as="offset" />
          </mxGeometry>
        </mxCell>
        <mxCell id="OR1sDzfeM6FojQhinFcF-138" value="" style="edgeStyle=orthogonalEdgeStyle;rounded=0;orthogonalLoop=1;jettySize=auto;html=1;" edge="1" parent="WIyWlLk6GJQsqaUBKTNV-1" source="OR1sDzfeM6FojQhinFcF-129" target="OR1sDzfeM6FojQhinFcF-135">
          <mxGeometry relative="1" as="geometry" />
        </mxCell>
        <mxCell id="OR1sDzfeM6FojQhinFcF-129" value="&lt;font style=&quot;font-size: 10px;&quot;&gt;Input infos of monster&lt;/font&gt;" style="rhombus;whiteSpace=wrap;html=1;" vertex="1" parent="WIyWlLk6GJQsqaUBKTNV-1">
          <mxGeometry x="328" y="1089" width="84" height="79" as="geometry" />
        </mxCell>
        <mxCell id="OR1sDzfeM6FojQhinFcF-137" value="" style="edgeStyle=orthogonalEdgeStyle;rounded=0;orthogonalLoop=1;jettySize=auto;html=1;" edge="1" parent="WIyWlLk6GJQsqaUBKTNV-1" source="OR1sDzfeM6FojQhinFcF-131" target="OR1sDzfeM6FojQhinFcF-135">
          <mxGeometry relative="1" as="geometry" />
        </mxCell>
        <mxCell id="OR1sDzfeM6FojQhinFcF-131" value="&lt;font style=&quot;font-size: 10px;&quot;&gt;Input infos of monsters&lt;/font&gt;" style="rhombus;whiteSpace=wrap;html=1;" vertex="1" parent="WIyWlLk6GJQsqaUBKTNV-1">
          <mxGeometry x="425" y="1089" width="80" height="80" as="geometry" />
        </mxCell>
        <mxCell id="OR1sDzfeM6FojQhinFcF-136" value="" style="edgeStyle=orthogonalEdgeStyle;rounded=0;orthogonalLoop=1;jettySize=auto;html=1;" edge="1" parent="WIyWlLk6GJQsqaUBKTNV-1" source="OR1sDzfeM6FojQhinFcF-133" target="OR1sDzfeM6FojQhinFcF-135">
          <mxGeometry relative="1" as="geometry" />
        </mxCell>
        <mxCell id="OR1sDzfeM6FojQhinFcF-133" value="&lt;font style=&quot;font-size: 9px;&quot;&gt;Input infos of the item&lt;/font&gt;" style="rhombus;whiteSpace=wrap;html=1;" vertex="1" parent="WIyWlLk6GJQsqaUBKTNV-1">
          <mxGeometry x="520" y="1089" width="80" height="80" as="geometry" />
        </mxCell>
        <mxCell id="OR1sDzfeM6FojQhinFcF-135" value="Add to the quests Table" style="shape=process;whiteSpace=wrap;html=1;backgroundOutline=1;" vertex="1" parent="WIyWlLk6GJQsqaUBKTNV-1">
          <mxGeometry x="405" y="1220" width="120" height="60" as="geometry" />
        </mxCell>
        <mxCell id="OR1sDzfeM6FojQhinFcF-139" style="edgeStyle=orthogonalEdgeStyle;rounded=0;orthogonalLoop=1;jettySize=auto;html=1;exitX=0;exitY=0.5;exitDx=0;exitDy=0;entryX=0.492;entryY=0.935;entryDx=0;entryDy=0;entryPerimeter=0;" edge="1" parent="WIyWlLk6GJQsqaUBKTNV-1" source="OR1sDzfeM6FojQhinFcF-135" target="OR1sDzfeM6FojQhinFcF-105">
          <mxGeometry relative="1" as="geometry" />
        </mxCell>
        <mxCell id="OR1sDzfeM6FojQhinFcF-143" style="edgeStyle=orthogonalEdgeStyle;rounded=0;orthogonalLoop=1;jettySize=auto;html=1;exitX=0;exitY=0.5;exitDx=0;exitDy=0;entryX=1;entryY=0.5;entryDx=0;entryDy=0;" edge="1" parent="WIyWlLk6GJQsqaUBKTNV-1" source="OR1sDzfeM6FojQhinFcF-142" target="WIyWlLk6GJQsqaUBKTNV-3">
          <mxGeometry relative="1" as="geometry" />
        </mxCell>
        <mxCell id="OR1sDzfeM6FojQhinFcF-144" value="Yes" style="edgeLabel;html=1;align=center;verticalAlign=middle;resizable=0;points=[];" vertex="1" connectable="0" parent="OR1sDzfeM6FojQhinFcF-143">
          <mxGeometry x="0.3027" y="3" relative="1" as="geometry">
            <mxPoint as="offset" />
          </mxGeometry>
        </mxCell>
        <mxCell id="OR1sDzfeM6FojQhinFcF-146" value="" style="edgeStyle=orthogonalEdgeStyle;rounded=0;orthogonalLoop=1;jettySize=auto;html=1;" edge="1" parent="WIyWlLk6GJQsqaUBKTNV-1" source="OR1sDzfeM6FojQhinFcF-142" target="OR1sDzfeM6FojQhinFcF-145">
          <mxGeometry relative="1" as="geometry" />
        </mxCell>
        <mxCell id="OR1sDzfeM6FojQhinFcF-147" value="No" style="edgeLabel;html=1;align=center;verticalAlign=middle;resizable=0;points=[];" vertex="1" connectable="0" parent="OR1sDzfeM6FojQhinFcF-146">
          <mxGeometry x="0.6" relative="1" as="geometry">
            <mxPoint as="offset" />
          </mxGeometry>
        </mxCell>
        <mxCell id="OR1sDzfeM6FojQhinFcF-142" value="Replay?" style="rhombus;whiteSpace=wrap;html=1;" vertex="1" parent="WIyWlLk6GJQsqaUBKTNV-1">
          <mxGeometry x="210" y="70" width="80" height="40" as="geometry" />
        </mxCell>
        <mxCell id="OR1sDzfeM6FojQhinFcF-145" value="Logout" style="rounded=1;whiteSpace=wrap;html=1;" vertex="1" parent="WIyWlLk6GJQsqaUBKTNV-1">
          <mxGeometry x="200" y="20" width="100" height="30" as="geometry" />
        </mxCell>
      </root>
    </mxGraphModel>
  </diagram>
</mxfile>
